<?xml version="1.0" standalone="no"?>
<!DOCTYPE svg PUBLIC "-//W3C//DTD SVG 20010904//EN"
 "http://www.w3.org/TR/2001/REC-SVG-20010904/DTD/svg10.dtd">
<svg version="1.0" xmlns="http://www.w3.org/2000/svg"
 width="700.000000pt" height="700.000000pt" viewBox="0 0 700.000000 700.000000"
 preserveAspectRatio="xMidYMid meet">
<metadata>
Created by potrace 1.11, written by Peter Selinger 2001-2013
</metadata>
<g transform="translate(0.000000,700.000000) scale(0.100000,-0.100000)"
fill="#000000" stroke="none">
<path d="M3270 6994 c-19 -2 -84 -9 -144 -14 -492 -48 -1004 -218 -1431 -475
-721 -434 -1255 -1095 -1516 -1877 -124 -373 -174 -685 -174 -1098 0 -268 10
-381 51 -610 165 -911 689 -1716 1459 -2242 737 -503 1640 -706 2530 -567
1107 173 2075 881 2577 1884 188 374 300 762 349 1205 15 135 15 523 0 665
-72 681 -325 1301 -747 1830 -114 143 -399 428 -539 538 -511 405 -1092 651
-1745 738 -138 19 -578 34 -670 23z m400 -349 c716 -98 1380 -447 1835 -965
605 -687 859 -1556 714 -2444 -166 -1015 -877 -1890 -1841 -2266 -363 -142
-693 -203 -1093 -204 -488 0 -891 93 -1330 309 -821 404 -1409 1165 -1590
2060 -73 359 -83 862 -24 1213 88 526 348 1027 732 1414 204 205 419 359 729
521 434 228 779 334 1223 377 128 12 509 4 645 -15z"/>
<path d="M2230 5620 c-229 -5 -307 -10 -350 -23 -129 -38 -207 -90 -575 -383
-198 -158 -364 -293 -369 -301 -5 -9 -4 -25 2 -38 13 -29 7 -28 624 -54 511
-21 543 -20 629 31 40 24 278 248 617 581 136 134 154 164 113 187 -21 11
-180 11 -691 0z m-138 -287 c80 -72 -136 -231 -251 -183 -102 42 42 200 183
200 32 0 56 -6 68 -17z"/>
<path d="M2664 5176 c-190 -183 -356 -349 -368 -367 -32 -47 -46 -94 -46 -148
0 -62 9 -75 44 -61 15 5 38 10 52 10 25 0 28 4 38 53 4 15 19 41 34 58 47 53
120 37 164 -37 13 -22 28 -34 41 -34 39 0 649 78 654 84 8 7 -196 726 -213
754 -8 12 -23 22 -34 22 -13 0 -146 -122 -366 -334z m350 28 c35 -22 66 -92
66 -148 0 -152 -149 -189 -211 -52 -49 107 6 236 93 221 16 -2 39 -12 52 -21z"/>
<path d="M906 4764 c-9 -8 -16 -21 -16 -27 0 -17 443 -1009 470 -1052 24 -39
87 -94 138 -119 33 -17 502 -130 509 -123 2 2 44 238 93 523 50 285 93 527 96
537 8 25 -37 116 -77 156 -72 73 -69 72 -629 97 -615 28 -565 27 -584 8z
m1036 -263 c32 -20 53 -44 72 -82 31 -64 33 -88 5 -123 -40 -50 -138 -23 -202
56 -38 48 -49 128 -22 158 28 30 91 27 147 -9z m-350 -617 c48 -31 88 -91 95
-143 5 -34 1 -44 -22 -66 -22 -23 -33 -27 -65 -22 -88 11 -170 100 -170 182 0
83 75 106 162 49z"/>
<path d="M3025 4584 c-286 -30 -533 -59 -549 -66 -17 -7 -34 -25 -42 -44 -29
-69 -34 -65 492 -428 266 -185 503 -345 526 -357 91 -47 131 -43 739 77 611
121 599 117 599 191 -1 46 -12 61 -69 97 -213 134 -930 560 -962 572 -64 22
-170 16 -734 -42z m706 -65 c47 -12 100 -48 118 -81 15 -25 14 -29 -9 -52 -42
-46 -130 -58 -227 -32 -162 43 -187 148 -43 177 38 7 103 3 161 -12z m-726
-80 c129 -64 102 -147 -52 -157 -193 -12 -327 117 -183 177 45 19 181 8 235
-20z m717 -171 c61 -26 90 -58 86 -94 -9 -82 -219 -95 -329 -21 -104 70 -23
154 136 140 33 -3 81 -14 107 -25z m746 -173 c49 -20 94 -69 90 -98 -13 -85
-259 -90 -349 -6 -49 45 -33 97 37 119 42 14 172 5 222 -15z m-867 -65 c81
-15 138 -47 157 -86 15 -33 15 -35 -8 -58 -71 -77 -309 -41 -360 54 -20 37 16
74 85 91 44 10 66 10 126 -1z"/>
<path d="M2277 4338 c-19 -30 -218 -1185 -217 -1263 0 -101 42 -224 104 -308
44 -60 836 -817 855 -817 10 0 24 6 30 14 7 8 91 335 187 728 160 653 175 719
171 784 -4 76 -22 116 -74 168 -41 41 -995 709 -1020 714 -14 3 -26 -3 -36
-20z m202 -279 c64 -22 106 -145 82 -237 -39 -144 -175 -140 -217 6 -26 89 1
187 60 223 36 22 34 22 75 8z m-33 -484 c67 -72 67 -214 -2 -282 -18 -19 -42
-33 -55 -33 -37 0 -84 34 -103 74 -79 166 48 359 160 241z m659 13 c40 -31 65
-93 65 -161 0 -69 -18 -116 -55 -145 -82 -65 -173 18 -174 158 -1 130 86 209
164 148z m-750 -420 c39 -31 65 -93 65 -160 0 -101 -44 -168 -110 -168 -70 0
-120 74 -120 178 0 130 88 211 165 150z m673 -73 c32 -27 62 -99 62 -149 0
-81 -59 -176 -109 -176 -39 0 -80 29 -103 73 -43 81 -21 231 39 266 32 19 80
12 111 -14z m-79 -480 c65 -74 63 -215 -4 -282 -53 -53 -111 -38 -155 39 -20
34 -25 57 -25 113 0 82 23 131 73 156 42 22 76 14 111 -26z"/>
<path d="M4260 3676 c-305 -62 -573 -121 -594 -131 -52 -25 -105 -79 -126
-129 -10 -23 -93 -360 -185 -750 -175 -734 -175 -737 -129 -744 11 -2 264 85
562 192 591 212 607 219 670 316 25 38 76 190 222 667 105 340 193 625 196
635 6 19 -28 59 -48 57 -7 0 -263 -51 -568 -113z m351 -96 c27 -15 49 -63 49
-110 0 -79 -54 -166 -124 -199 -61 -30 -101 -27 -137 8 -25 26 -29 37 -29 86
0 64 15 106 56 154 54 64 131 89 185 61z m-743 -197 c66 -41 54 -166 -26 -254
-69 -77 -145 -89 -198 -32 -19 21 -24 36 -24 82 1 97 61 186 146 216 41 15 65
12 102 -12z m502 -648 c39 -20 53 -49 53 -111 0 -125 -132 -250 -227 -214 -14
5 -35 24 -46 42 -52 86 11 235 120 282 45 19 64 20 100 1z m-721 -209 c35 -18
51 -55 51 -114 -1 -62 -27 -118 -78 -164 -97 -87 -199 -63 -210 51 -6 65 12
115 62 169 62 68 119 87 175 58z"/>
</g>
</svg>
